<?xml version="1.0" encoding="UTF-8"?>
<svg width="48px" height="24px" viewBox="0 0 48 24" version="1.1" xmlns="http://www.w3.org/2000/svg" xmlns:xlink="http://www.w3.org/1999/xlink">
    <title>Icons/Logo/24px</title>
    <g id="Icons" stroke="none" stroke-width="1" fill="none" fill-rule="evenodd">
        <g id="Icons/Logo/24px" fill="#BB162B">
            <path d="M24.0011641,-1.77635684e-14 C37.2543047,-1.77635684e-14 48,5.37235584 48,12.0011591 C48,18.6264851 37.2543047,24 24.0011641,24 C10.7456953,24 4.69967882e-14,18.6264851 4.61854198e-14,12.0011591 C4.53736255e-14,5.37235584 10.7456953,-1.42108547e-14 24.0011641,-1.77635684e-14 Z M24.0011641,1.51144596 C12.3172139,1.51144596 2.81127225,6.21732831 2.81127225,11.9988409 C2.81127225,17.7826717 12.3172139,22.488554 24.0011641,22.488554 C35.6851142,22.488554 45.1910559,17.7826717 45.1910559,11.9988409 C45.1910559,6.21732831 35.6851142,1.51144596 24.0011641,1.51144596 Z M25.4360188,5.88351203 C25.5803657,5.88351203 25.6956104,5.99826137 25.6956104,6.14082875 L25.6956104,6.14082875 L25.6956104,17.827876 C25.6956104,17.9727615 25.5826939,18.0863518 25.4360188,18.0863518 L25.4360188,18.0863518 L22.5549013,18.0863518 C22.4093903,18.0863518 22.2953097,17.9727615 22.2953097,17.827876 L22.2953097,17.827876 L22.2953097,6.85946103 C22.2953097,6.72500724 22.1893777,6.61837149 22.0531794,6.61837149 L22.0531794,6.61837149 L21.6655381,6.61837149 C21.6306155,6.61837149 21.6306155,6.58243987 21.6306155,6.55578093 L21.6306155,6.55578093 L21.6306155,5.94726166 C21.6306155,5.91828456 21.6306155,5.88351203 21.6655381,5.88351203 L21.6655381,5.88351203 Z M35.5446088,5.88432338 C35.6726585,5.88432338 35.8263181,5.90055057 35.8868507,6.0535497 L35.8868507,6.0535497 L39.8272882,17.7707331 C39.8447495,17.8286873 39.838929,17.9225732 39.7830528,17.9967546 C39.7539506,18.0384816 39.6980744,18.0860041 39.5967988,18.0860041 L39.5967988,18.0860041 L36.7669011,18.0860041 C36.6272106,18.0860041 36.4851918,17.9793683 36.4281515,17.8310055 L36.4281515,17.8310055 L33.9870592,10.2598667 C33.984731,10.2598667 33.9567929,10.1532309 33.8718145,10.1532309 C33.7798516,10.1532309 33.7530776,10.2575485 33.7530776,10.2598667 L33.7530776,10.2598667 L31.3375952,17.8310055 C31.281719,17.9770501 31.1350439,18.0860041 30.9988456,18.0860041 L30.9988456,18.0860041 L28.1666198,18.0860041 C28.0932822,18.0860041 28.0280933,18.0547088 27.9815298,17.9944364 C27.9338022,17.9330049 27.9163409,17.8495509 27.9384586,17.7730513 L27.9384586,17.7730513 L31.5727409,6.96806723 C31.5913663,6.91243118 31.599515,6.87070414 31.599515,6.82897711 C31.599515,6.70263692 31.5040598,6.61802376 31.3597129,6.61802376 L31.3597129,6.61802376 L31.0256196,6.61802376 C30.9941893,6.61802376 30.9627589,6.58672848 30.9627589,6.55543321 L30.9627589,6.55543321 L30.9627589,5.94575485 C30.9627589,5.91214141 30.9918611,5.88432338 31.0256196,5.88432338 L31.0256196,5.88432338 Z M12.2076733,5.88351203 C12.3508561,5.88351203 12.4661008,5.99826137 12.4661008,6.14082875 L12.4661008,6.14082875 L12.4661008,10.0376702 C12.4661008,10.1130107 12.5173207,10.1651695 12.5941505,10.1651695 L12.5941505,10.1651695 C12.6127759,10.1651695 12.6965902,10.158215 12.7815686,10.0318748 L12.7815686,10.0318748 L15.528816,6.16285135 C15.6370762,6.00289771 15.8314789,5.88351203 15.979318,5.88351203 L15.979318,5.88351203 L19.1421448,5.88351203 C19.2259592,5.88351203 19.3004608,5.9298754 19.3458602,6.00753405 C19.3900956,6.08635178 19.3900956,6.18255578 19.3458602,6.25325992 L19.3458602,6.25325992 L15.8221662,11.450594 C15.7907358,11.5120255 15.767454,11.5618661 15.767454,11.6105477 C15.767454,11.6267748 15.7721104,11.6383657 15.7744386,11.6511156 C15.7779308,11.6685019 15.7860794,11.6870472 15.7965562,11.7032744 C15.8012126,11.7160243 15.8093612,11.7287743 15.8221662,11.7461605 C15.8629092,11.8052738 20.0268516,17.6702405 20.0361643,17.6841495 C20.097861,17.7745581 20.1095019,17.869603 20.0664306,17.951898 C20.0268516,18.0283976 19.939545,18.0863518 19.8615511,18.0863518 L19.8615511,18.0863518 L16.534588,18.0863518 C16.3832565,18.0863518 16.191182,17.965807 16.0840859,17.8058534 L16.0840859,17.8058534 L12.7838968,13.1903796 C12.7780763,13.1845842 12.77342,13.1799478 12.7710918,13.1741524 C12.7361692,13.1243118 12.6907698,13.0570849 12.5941505,13.0570849 C12.5115002,13.0570849 12.4661008,13.1150391 12.4661008,13.2158795 L12.4661008,13.2158795 L12.4661008,17.827876 C12.4661008,17.9692843 12.3508561,18.0863518 12.2076733,18.0863518 L12.2076733,18.0863518 L9.40571373,18.0863518 C9.26136683,18.0863518 9.1496144,17.9727615 9.1496144,17.827876 L9.1496144,17.827876 L9.1496144,6.85946103 C9.1496144,6.72500724 9.04251831,6.61837149 8.90632003,6.61837149 L8.90632003,6.61837149 L8.51867876,6.61837149 C8.48724839,6.61837149 8.45465393,6.58939438 8.45465393,6.55578093 L8.45465393,6.55578093 L8.45465393,5.94726166 C8.45465393,5.91248913 8.4860843,5.88351203 8.51867876,5.88351203 L8.51867876,5.88351203 Z" id="Combined-Shape"></path>
        </g>
    </g>
</svg>